<svg width="600" height="600" viewBox="0 0 600 600" fill="none" xmlns="http://www.w3.org/2000/svg">
<rect width="600" height="600" rx="40" fill="white"/>
<path fill-rule="evenodd" clip-rule="evenodd" d="M130.9 98H238.2C338.9 98 346.1 98.1 356 99.9C361.8 100.9 370.8 103.2 376 105C381.2 106.7 388.9 110 393 112.2C397.1 114.4 402.8 117.7 405.5 119.5C408.3 121.4 413.6 125.5 417.5 128.7C421.4 131.9 427.4 138.2 431 142.7C434.6 147.1 439.6 154.7 442.2 159.6C444.8 164.5 448.2 172.5 449.8 177.5C451.4 182.5 453.5 191.9 454.5 198.5C455.8 207.1 456.1 213.4 455.6 221C455.3 226.8 454.3 235.1 453.5 239.5C452.6 243.9 450.8 250.8 449.5 254.8C448.1 258.7 445.6 264.8 443.9 268.3C442.2 271.7 438.7 277.7 436.2 281.5C433.7 285.3 427.6 292.7 422.6 297.9C417.6 303 409.9 309.6 405.5 312.5C401.1 315.4 394.4 319.3 390.5 321.3C386.6 323.2 380.1 325.9 376 327.3C371.9 328.7 366.8 330.1 361 331V341.3C361.1 348.4 360.7 351.9 359.8 352.8C359 353.5 356.4 353.9 347.5 353.5L347 333H317V342.3C317 347.3 316.6 352.1 316.2 352.8C315.7 353.6 313.5 354 302.5 353.5L302 333H190L189.5 353.5L184 353.8C180.6 353.9 178 353.5 177.2 352.8C176.2 351.8 175.9 340.4 176 297.5C176 257.6 176.4 242.5 177.3 239.6C177.9 237.5 179.8 234.2 181.5 232.2C183.2 230.3 186.2 227.9 188.3 226.9C191.6 225.2 194.6 225 215.5 225C232.9 225 239.8 225.3 242.3 226.3C244 227.1 247.2 229.6 249.3 231.8C251.3 234.1 253.4 237.7 254 239.7C254.5 241.8 255 249.5 255 270L259.3 270.5C261.6 270.7 277 271.8 293.5 273C310 274.1 327.3 275.3 332 275.6C336.7 275.9 342.1 276.6 344 277.1C345.9 277.5 349.5 279.4 351.9 281.2C354.7 283.4 357 286.3 361 295L366.2 293.1C369.1 292.1 373.9 290.1 382 286V242H373.7C367.5 242.1 365.2 241.7 364.2 240.5C363.5 239.6 363.3 237.9 363.6 236.2C364 234.7 365.8 228.1 367.7 221.5C369.6 214.9 371.8 208.4 372.5 207C373.1 205.6 374.5 204.2 375.4 203.7C376.3 203.3 381.1 203 386 203C390.9 203 396.1 203.4 397.5 204C399.2 204.7 400.5 206.4 401.4 209.2C402.2 211.6 404.6 219.5 406.9 226.7C409.2 234 410.8 240.4 410.5 241C410.2 241.6 405.8 242 391 242V280L394.2 277.7C396 276.5 399.8 272.6 402.8 269C405.7 265.4 410.1 258.4 412.5 253.5C414.9 248.6 417.6 241.1 418.6 237C419.9 231.6 420.5 225.7 420.5 216C420.5 206.2 420 200.5 418.6 195C417.6 190.9 414.8 183.4 412.5 178.5C410.1 173.5 405.7 166.5 402.8 162.9C399.9 159.3 394.8 154 391.5 151.1C388.2 148.2 382.8 144.3 379.5 142.5C376.2 140.6 370.6 138 367 136.7C363.4 135.3 356.4 133.4 351.5 132.4C343.2 130.7 336.3 130.6 257.5 130.9C191.6 131.1 171.8 131.5 169.5 132.5C167.8 133.2 165.5 134.8 164.3 136.1C163.1 137.4 161.7 139.7 161.1 141.2C160.3 143.1 160 179.9 160 374L157.3 376C154.9 377.8 153 378.1 143 378.1C132.1 378.1 131.4 377.9 126 373L126.1 102.9L130.9 98ZM312.7 156C342.2 156 350.6 156.3 352.7 157.4C354.2 158.1 355.8 159.5 356.2 160.4C356.6 161.3 357 179.1 357 200C357 223.3 356.6 238.8 356 240C355.4 241.1 353.6 242.7 352 243.5C349.5 244.8 343 245 313 245C283 245 276.5 244.8 274 243.5C272.3 242.7 270.5 241.1 270 240C269.4 238.8 269 223.2 269 199.8C269 170.4 269.2 161.1 270.2 159.9C270.9 159 272.4 157.8 273.5 157.2C274.8 156.4 287.7 156.1 312.7 156ZM318 392.3C319.9 392.5 322.9 393.6 324.7 394.8C327 396.3 328.3 398.2 329 401C329.7 404 329.6 405.8 328.7 408.3C327.9 410 326 412.5 324.4 413.8C322.4 415.4 320.2 416.1 317.2 416C314.9 416 311.7 415.3 310.2 414.5C308.7 413.6 306.7 411.6 305.7 410C304.8 408.3 304 405.8 304 404.3C304 402.7 305 400 306.2 398.2C307.4 396.4 309.7 394.2 311.4 393.4C313.1 392.6 316.1 392.1 318 392.3V392.3ZM363.5 396.5L363.7 425.3C363.9 441.1 364.3 454 364.7 454C365.1 453.9 365.9 453.3 366.5 452.6C367 451.9 372.8 445.1 391 424H403.5C415.2 424 416 424.1 415.7 425.9C415.6 427 409.5 434.2 389 456L396.8 468.3C401.1 475 407.4 484.9 410.8 490.3C414.2 495.6 416.8 500.5 416.5 501C416.2 501.6 411 502 392 502L382.9 487.3C377.8 479.1 373.5 472.3 373.3 472C373.1 471.7 370.9 473.5 364 480.5L363.5 501.5H342.5L342.2 450C342.1 421.7 342.2 397.9 342.5 397.2C342.9 396.3 345.6 396 363.5 396.5V396.5ZM74.5 422.1C77.8 422 83 422.7 86 423.5C89 424.4 93.3 426.1 95.5 427.4C97.7 428.7 101.4 431.9 103.7 434.4C106.1 436.9 108.7 440.7 109.6 442.8C110.5 444.8 111.8 448.8 112.6 451.5C113.3 454.3 114 459.4 114 463C114 466.6 113.4 471.8 112.6 474.5C111.9 477.3 110 481.9 108.4 484.9C106.8 487.8 103.7 491.9 101.5 493.8C99.3 495.8 94.6 498.7 91 500.4C85.3 503 83.4 503.4 76 503.3C70.6 503.3 65.9 502.7 63 501.6C60.5 500.7 57 498.8 52 495V511C52 524.3 51.7 527.3 50.4 528.5C49.3 529.6 46.6 530 40.9 530C36.5 530 32.1 529.6 31 529C29 528 29 527 29 477.3C29 449.3 29.3 425.9 29.7 425.2C30.3 424.3 33.2 424.1 49.5 424.5L50 432L54.1 428.8C56.4 427 60.6 424.7 63.4 423.8C66.2 422.8 71.2 422.1 74.5 422.1V422.1ZM161 422.3C169.3 422.5 172.5 423.1 176.5 424.9C179.2 426.1 183 428.6 184.8 430.3C186.7 432.1 189.2 435.3 190.5 437.5C191.8 439.7 193.4 444.7 194 448.5C194.6 452.4 195.2 465.6 195.5 500.5H174.5L174 495L168.7 498.6C165.8 500.5 161.9 502.4 160 502.8C158.1 503.2 152.9 503.5 148.5 503.5C142.7 503.4 139.2 502.8 136 501.4C133.5 500.2 130 497.8 128.2 495.9C126.4 494 124.3 490.5 123.5 488C122.6 485.5 122 481.5 122 479C122 476.5 122.9 472.5 124.1 470C125.2 467.5 127.1 464.5 128.3 463.2C129.5 461.9 132.5 459.8 135 458.5C137.5 457.3 142.7 455.7 146.7 455.1C150.7 454.5 158 454 163 454C171.3 454 172 453.9 172 452C172 450.9 171.3 448.7 170.5 447C169.7 445.4 168 443.5 166.7 442.8C165.5 442.2 162.7 441.3 160.5 440.9C158.3 440.5 154 440.6 151 441.1C148 441.6 142.3 443.5 138.5 445.5C134.6 447.4 130.9 449 130.2 449C129.5 449 128.8 448.3 128.5 447.5C128.2 446.7 128 443.1 128 439.5C128 434 128.3 432.7 130.2 431C131.5 429.8 134.5 428 137 426.8C139.5 425.6 143.5 424.1 146 423.4C148.7 422.6 154.7 422.2 161 422.3ZM254.5 422.1C257.8 422 263 422.7 266 423.5C269 424.4 273.3 426.1 275.5 427.4C277.7 428.8 281.1 431.6 283.2 433.7C285.2 435.8 288.1 440 289.5 443C291 446 292.7 451.2 293.2 454.5C293.7 457.8 293.9 463.7 293.5 467.5C293.1 472.4 291.9 476.6 289.6 481.5C287.4 486.167 284.567 490.1 281.1 493.3C278.3 495.9 273.4 499.2 270.2 500.7C265.2 503.1 263.2 503.5 255 503.5C246.1 503.5 245 503.3 238.5 500C234.6 498.1 231.1 496.4 230.7 496.3C230.3 496.1 229.9 503.3 229.5 528.5H208.5V424.5L217.5 424.3C223.6 424.1 226.9 424.4 227.8 425.3C228.5 425.9 229.1 427.7 229 432L233.6 428.8C236.2 427 240.6 424.7 243.4 423.8C246.2 422.8 251.2 422.1 254.5 422.1V422.1ZM458.5 422.1C461.8 422.1 467.2 422.7 470.5 423.4C473.8 424.1 478.7 425.8 481.5 427.1C484.2 428.4 488.8 431.8 491.8 434.5C495.3 437.7 498.3 441.8 500.3 446C503.2 452 503.5 453.3 503.5 463C503.5 472.8 503.3 474 500.3 480C498.4 484 495.2 488.4 492.1 491.3C489.3 493.9 484.2 497.4 480.7 499C477.3 500.6 471.8 502.5 468.5 503.1C465.1 503.7 459.2 504 455 503.6C449.3 503.2 445.8 502.2 440.5 499.6C435.6 497.2 431.9 494.5 428.2 490.4C425 486.9 422 482.3 420.7 479C419.1 474.7 418.6 471.2 418.6 463C418.5 454.6 419 451.4 420.7 447C421.9 444 425.1 439 427.8 436C430.5 433 435.1 429.2 438.1 427.6C441.1 426 445.5 424.1 448 423.4C450.5 422.7 455.2 422.2 458.5 422.1V422.1ZM541 422.1C544.6 422.1 550 422.6 553 423.3C556 424 560.5 425.7 567.5 429.5V436.9C567.5 442.6 567.1 444.5 565.8 445.4C564.5 446.3 562.7 445.7 556.8 442.8C550.6 439.6 548.5 439 543 439C537.6 439.1 536.1 439.4 534.2 441.3C533 442.5 531.9 444.5 532 445.8C532 447 532.7 448.7 533.5 449.5C534.3 450.3 536.9 451.5 539.2 452.1C541.6 452.7 546.2 454 549.5 455C552.8 455.9 557.3 457.7 559.5 458.8C561.7 459.9 564.7 462.1 566.2 463.7C567.7 465.2 569.6 468.2 570.4 470.3C571.3 472.3 572 476.1 572 478.8C572 482 571.1 485.3 569.2 488.9C567.7 491.9 565.1 495.4 563.5 496.6C561.8 497.9 558.2 499.9 555.5 501.2C551.3 503.1 548.8 503.4 539.5 503.5C530.5 503.5 527.3 503.1 522 501.2C518.4 499.9 514.7 498.3 513.8 497.7C512.4 496.8 512 494.8 512 488.5C511.9 483.1 512.3 480.1 513.2 479.2C514.3 478.1 515.6 478.4 520.7 480.9C524.2 482.6 530.2 484.7 534.2 485.6C538.2 486.5 542.9 487 544.7 486.6C546.5 486.3 548.9 485.1 550 484C551.1 482.9 552 481 552 479.8C552 478.5 551.2 476.8 550.3 475.8C549.3 474.9 544.2 472.9 539 471.5C533.8 470 526.7 467.5 523.2 465.9C518.1 463.5 516.5 462.2 514.2 458.3C512 454.3 511.5 452.4 511.6 447C511.6 442.6 512.3 439.2 513.7 436.5C514.8 434.3 517.7 430.8 520.1 428.7C522.5 426.6 526.3 424.5 528.5 423.9C530.7 423.4 532.9 422.7 533.5 422.5C534 422.3 537.4 422.1 541 422.1V422.1ZM327.5 424.5V501.5H306.5L306.3 464C306.3 443.4 306.4 425.9 306.6 425.2C306.9 424.3 309.6 424 327.5 424.5Z" fill="#194C8D"/>
<path d="M282 195V182L282.1 168.9L306.5 169.5L307 195H282Z" fill="white"/>
<path d="M318.9 195.1V182.1V169.1H343.9V195.1H318.9Z" fill="white"/>
<path d="M281.9 233.1L282 220.5V208L306.4 208.6V232.6L281.9 233.1Z" fill="white"/>
<path d="M319 233V220.5V208H344V233H319Z" fill="white"/>
<path d="M203.2 252.5C204.4 252.3 210.9 251.9 217.5 251.8C224.1 251.6 230.4 251.7 231.5 251.9C232.6 252.1 234.4 252.7 235.5 253.1C236.6 253.5 238.7 255.1 240.2 256.7C241.7 258.3 243.2 261.1 243.6 263C243.9 265 243.9 267.8 243 272H203L200.9 269.3C199.8 267.8 198.6 265.2 198.3 263.5C198 261.8 198.5 258.9 199.4 256.8C200.4 254.4 201.8 252.9 203.2 252.5Z" fill="white"/>
<path d="M187.8 296.7C187.7 290.5 188 285.1 188.5 284.7C188.9 284.3 194.3 284 200.4 284C206.5 284 213.6 284.4 216.2 284.8C220 285.4 220.9 285.9 220.3 287C219.9 287.9 219.4 293.5 218.8 310.5L204.6 310C196.8 309.7 189.9 309.1 189.2 308.7C188.3 308.2 187.9 304.6 187.8 296.7Z" fill="white"/>
<path d="M232.3 289.9C233.6 288.2 236.2 286.1 238.1 285.4C240.4 284.4 243.8 284.1 249 284.5C253.1 284.8 266.7 285 302 285V310H230V301.5C230 294.2 230.3 292.6 232.3 289.9Z" fill="white"/>
<path d="M54.6001 449.6C56.2001 447.5 59.5001 444.7 61.9001 443.4C64.7001 441.9 68.1001 441 70.9001 441.1C73.4001 441.1 77.3001 441.9 79.5001 442.9C81.7001 443.9 84.7001 446.1 86.2001 447.9C87.7001 449.6 89.4001 452.7 90.0001 454.8C90.5001 456.9 91.0001 460.7 91.0001 463.3C91.0001 465.9 90.3001 469.7 89.4001 471.8C88.6001 473.9 86.6001 476.8 85.2001 478.4C83.7001 479.9 81.6001 481.7 80.5001 482.3C79.4001 482.9 76.7001 483.7 74.5001 484.1C72.3001 484.6 68.4001 484.5 66.0001 483.9C63.5001 483.4 59.9001 481.7 58.0001 480.2C56.1001 478.7 53.7001 475.5 52.6001 473C51.1001 469.4 50.8001 467.1 51.2001 461C51.7001 454.9 52.3001 452.8 54.6001 449.6Z" fill="white"/>
<path d="M237 445.9C238.9 444.4 241.6 442.7 243 442.2C244.3 441.6 247.7 441.1 250.5 441.1C253.2 441.1 257.3 441.9 259.5 442.9C261.7 443.9 264.6 446.2 266.1 448.1C267.5 450 269.2 453.1 269.8 455C270.5 457 271 460.3 271 462.5C271 464.7 270.5 468.2 270 470.3C269.4 472.4 267.5 475.7 265.7 477.7C263.9 479.7 260.7 482.2 258.5 483.2C256.3 484.2 252.7 485 250.5 485C248.3 485 244.2 484 241.5 482.7C238.7 481.4 235.2 479 233.7 477.2C232.2 475.5 230.5 472.4 230 470.3C229.4 468.2 229 464.7 229 462.5C229 460.3 230 456.3 231.3 453.5C232.5 450.8 235.1 447.3 237 445.9Z" fill="white"/>
<path d="M445.7 448.4C447.3 446.4 450.1 444.2 452 443.4C453.9 442.7 457.8 442.1 460.7 442.1C464 442.1 467.4 442.8 469.7 443.9C471.8 445 474.4 446.9 475.7 448.2C476.9 449.5 478.5 452.2 479.4 454.3C480.3 456.4 481 460.4 480.9 463.3C480.9 466.2 480.1 470.3 479.1 472.5C478.1 474.7 476.2 477.5 474.8 478.7C473.5 479.9 470.8 481.6 468.7 482.5C466.6 483.3 463 484 460.7 484C458.4 484 454.7 483.2 452.5 482.2C450.3 481.2 447.2 479 445.7 477.2C444.2 475.5 442.5 472.4 442 470.3C441.4 468.2 441 465 441 463C441 461.1 441.4 457.9 442 455.8C442.5 453.7 444.2 450.4 445.7 448.4Z" fill="white"/>
<path d="M144.3 472.8C145 471.9 146.9 470.4 148.5 469.6C150.6 468.5 154.6 468 173 468V472.3C173 474.8 172.1 477.9 171 479.8C169.9 481.6 167.9 483.7 166.7 484.5C165.5 485.3 162.3 486.4 159.7 487C156.5 487.7 153.7 487.7 151 487C148.5 486.4 146.2 485 144.9 483.3C143.8 481.8 142.9 479.2 143 477.5C143 475.9 143.6 473.8 144.3 472.8Z" fill="white"/>
</svg>
