<svg width="543" height="432" viewBox="0 0 543 432" fill="none" xmlns="http://www.w3.org/2000/svg">
<path d="M45.5 324.1C48.8 324 54 324.7 57 325.5C60 326.4 64.3 328.1 66.5 329.4C68.7 330.7 72.4003 333.9 74.7002 336.4C77.1 338.9 79.6995 342.7 80.5996 344.8C81.4996 346.8 82.7996 350.8 83.5996 353.5C84.2996 356.3 85 361.4 85 365C85 368.6 84.3996 373.8 83.5996 376.5C82.8996 379.3 81.0004 383.9 79.4004 386.9C77.8004 389.8 74.7 393.9 72.5 395.8C70.3 397.8 65.6 400.7 62 402.4C56.3001 405 54.3999 405.4 47 405.3C41.6 405.3 36.9 404.7 34 403.6C31.5 402.7 27.9999 400.8 23 397V413C23 426.299 22.7002 429.3 21.4004 430.5C20.3004 431.6 17.6001 432 11.9004 432C7.50039 432 3.1 431.6 2 431C0 430 0 429 0 379.3C1.30787e-06 351.301 0.300212 327.901 0.700195 327.2C1.3002 326.3 4.2 326.1 20.5 326.5L21 334L25.0996 330.8C27.3996 329 31.6004 326.7 34.4004 325.8C37.2005 324.8 42.2002 324.1 45.5 324.1ZM225.5 324.1C228.8 324 234 324.7 237 325.5C240 326.4 244.3 328.1 246.5 329.4C248.7 330.8 252.1 333.6 254.2 335.7C256.2 337.8 259.1 342 260.5 345C262 348 263.7 353.2 264.2 356.5C264.7 359.8 264.9 365.7 264.5 369.5C264.1 374.4 262.9 378.6 260.6 383.5C258.4 388.167 255.566 392.1 252.1 395.3C249.3 397.9 244.4 401.2 241.2 402.7C236.2 405.1 234.2 405.5 226 405.5C217.1 405.5 216 405.3 209.5 402C205.6 400.1 202.101 398.4 201.7 398.3C201.3 398.1 200.9 405.3 200.5 430.5H179.5V326.5L188.5 326.3C194.6 326.1 197.9 326.4 198.8 327.3C199.5 327.9 200.1 329.7 200 334L204.6 330.8C207.2 329 211.6 326.7 214.4 325.8C217.2 324.8 222.2 324.1 225.5 324.1ZM429.5 324.1C432.8 324.1 438.2 324.7 441.5 325.4C444.8 326.1 449.7 327.8 452.5 329.1C455.2 330.4 459.8 333.8 462.8 336.5C466.3 339.7 469.3 343.8 471.3 348C474.2 354 474.5 355.3 474.5 365C474.5 374.8 474.3 376 471.3 382C469.4 386 466.2 390.4 463.1 393.3C460.3 395.9 455.2 399.4 451.7 401C448.3 402.6 442.8 404.5 439.5 405.1C436.1 405.7 430.2 406 426 405.6C420.3 405.2 416.8 404.2 411.5 401.6C406.6 399.2 402.9 396.5 399.2 392.4C396 388.9 393 384.3 391.7 381C390.1 376.7 389.6 373.2 389.6 365C389.5 356.6 390 353.4 391.7 349C392.9 346 396.1 341 398.8 338C401.5 335 406.1 331.2 409.1 329.6C412.1 328 416.5 326.1 419 325.4C421.5 324.7 426.2 324.2 429.5 324.1ZM117 325.4C119.7 324.6 125.7 324.2 132 324.3C140.3 324.5 143.5 325.1 147.5 326.9C150.2 328.1 154 330.6 155.8 332.3C157.7 334.1 160.2 337.3 161.5 339.5C162.8 341.7 164.4 346.7 165 350.5C165.6 354.4 166.2 367.6 166.5 402.5H145.5L145 397L139.7 400.6C136.8 402.5 132.9 404.4 131 404.8C129.1 405.2 123.9 405.5 119.5 405.5C113.7 405.4 110.2 404.8 107 403.4C104.5 402.2 101 399.8 99.2002 397.9C97.4002 396 95.3 392.5 94.5 390C93.6 387.5 93 383.5 93 381C93 378.5 93.8996 374.5 95.0996 372C96.1996 369.5 98.0998 366.5 99.2998 365.2C100.5 363.9 103.5 361.8 106 360.5C108.5 359.3 113.7 357.7 117.7 357.1C121.7 356.5 129 356 134 356C142.3 356 143 355.9 143 354C143 352.9 142.3 350.7 141.5 349C140.7 347.4 139 345.5 137.7 344.8C136.5 344.2 133.7 343.3 131.5 342.9C129.3 342.5 125 342.6 122 343.1C119 343.6 113.3 345.5 109.5 347.5C105.6 349.4 101.901 351 101.2 351C100.5 351 99.8 350.3 99.5 349.5C99.2 348.7 99 345.1 99 341.5C99 336 99.3002 334.7 101.2 333C102.5 331.8 105.5 330 108 328.8C110.5 327.6 114.5 326.1 117 325.4ZM512 324.1C515.6 324.1 521 324.6 524 325.3C527 326 531.5 327.7 538.5 331.5V338.9C538.5 344.6 538.1 346.5 536.8 347.4C535.5 348.3 533.699 347.7 527.8 344.8C521.6 341.6 519.5 341 514 341C508.6 341.1 507.1 341.4 505.2 343.3C504 344.5 502.9 346.5 503 347.8C503 349 503.7 350.7 504.5 351.5C505.3 352.3 507.9 353.5 510.2 354.1C512.6 354.7 517.2 356 520.5 357C523.8 357.9 528.3 359.7 530.5 360.8C532.7 361.9 535.7 364.1 537.2 365.7C538.7 367.2 540.6 370.2 541.4 372.3C542.3 374.3 543 378.1 543 380.8C543 384 542.1 387.3 540.2 390.9C538.7 393.9 536.1 397.399 534.5 398.6C532.8 399.9 529.2 401.9 526.5 403.2C522.3 405.1 519.8 405.4 510.5 405.5C501.5 405.5 498.3 405.1 493 403.2C489.4 401.9 485.7 400.3 484.8 399.7C483.4 398.8 483 396.8 483 390.5C482.9 385.1 483.3 382.1 484.2 381.2C485.3 380.1 486.6 380.4 491.7 382.9C495.2 384.6 501.2 386.7 505.2 387.6C509.2 388.5 513.9 389 515.7 388.6C517.5 388.3 519.9 387.1 521 386C522.1 384.9 523 383 523 381.8C523 380.5 522.2 378.8 521.3 377.8C520.299 376.9 515.2 374.9 510 373.5C504.8 372 497.7 369.5 494.2 367.9C489.1 365.5 487.5 364.2 485.2 360.3C483 356.3 482.5 354.4 482.6 349C482.6 344.6 483.3 341.2 484.7 338.5C485.8 336.3 488.7 332.8 491.1 330.7C493.5 328.6 497.3 326.5 499.5 325.9C501.7 325.4 503.9 324.7 504.5 324.5C505 324.3 508.4 324.1 512 324.1ZM313.5 299.2C313.9 298.3 316.6 298 334.5 298.5L334.7 327.3C334.9 343.1 335.3 356 335.7 356C336.1 355.9 336.9 355.3 337.5 354.6C338.001 353.898 343.802 347.097 362 326H374.5C386.2 326 387 326.1 386.7 327.9C386.599 329.002 380.498 336.202 360 358L367.8 370.3C372.1 377 378.4 386.9 381.8 392.3C385.2 397.6 387.8 402.5 387.5 403C387.2 403.6 382 404 363 404L353.9 389.3C348.8 381.1 344.5 374.3 344.3 374C344.099 373.7 341.899 375.501 335 382.5L334.5 403.5H313.5L313.2 352C313.1 323.702 313.2 299.904 313.5 299.2ZM277.6 327.2C277.9 326.3 280.6 326 298.5 326.5V403.5H277.5L277.3 366C277.3 345.403 277.4 327.904 277.6 327.2ZM144 370C125.6 370 121.6 370.5 119.5 371.6C117.9 372.4 116 373.9 115.3 374.8C114.6 375.8 114 377.9 114 379.5C113.9 381.2 114.8 383.8 115.9 385.3C117.2 387 119.5 388.4 122 389C124.7 389.7 127.5 389.7 130.7 389C133.3 388.4 136.5 387.3 137.7 386.5C138.9 385.7 140.9 383.6 142 381.8C143.1 379.9 144 376.8 144 374.3V370ZM221.5 343.1C218.7 343.1 215.3 343.6 214 344.2C212.6 344.7 209.9 346.4 208 347.9C206.1 349.3 203.5 352.8 202.3 355.5C201 358.3 200 362.3 200 364.5C200 366.7 200.4 370.2 201 372.3C201.5 374.4 203.2 377.5 204.7 379.2C206.2 381 209.7 383.4 212.5 384.7C215.2 386 219.3 387 221.5 387C223.7 387 227.3 386.2 229.5 385.2C231.7 384.2 234.9 381.7 236.7 379.7C238.5 377.7 240.4 374.4 241 372.3C241.5 370.2 242 366.7 242 364.5C242 362.3 241.5 359 240.8 357C240.2 355.1 238.5 352 237.1 350.1C235.6 348.2 232.7 345.9 230.5 344.9C228.3 343.9 224.2 343.1 221.5 343.1ZM41.9004 343.1C39.1004 343 35.7004 343.9 32.9004 345.4C30.5004 346.7 27.1996 349.5 25.5996 351.6C23.2996 354.8 22.7002 356.9 22.2002 363C21.8002 369.1 22.0997 371.4 23.5996 375C24.6996 377.5 27.1 380.7 29 382.2C30.9 383.7 34.5 385.4 37 385.9C39.4 386.5 43.3 386.6 45.5 386.1C47.7 385.7 50.4 384.9 51.5 384.3C52.6 383.7 54.7002 381.9 56.2002 380.4C57.6002 378.8 59.6004 375.9 60.4004 373.8C61.3003 371.7 62 367.9 62 365.3C62 362.7 61.5 358.9 61 356.8C60.4 354.7 58.7001 351.6 57.2002 349.9C55.7002 348.1 52.7 345.9 50.5 344.9C48.3001 343.9 44.4004 343.1 41.9004 343.1ZM431.7 344.1C428.8 344.1 424.9 344.7 423 345.4C421.1 346.2 418.3 348.4 416.7 350.4C415.2 352.4 413.5 355.7 413 357.8C412.4 359.9 412 363.1 412 365C412 367 412.4 370.2 413 372.3C413.5 374.4 415.2 377.5 416.7 379.2C418.2 381 421.3 383.2 423.5 384.2C425.7 385.2 429.4 386 431.7 386C434 386 437.6 385.3 439.7 384.5C441.8 383.6 444.5 381.9 445.8 380.7C447.2 379.5 449.1 376.7 450.1 374.5C451.1 372.3 451.9 368.2 451.9 365.3C452 362.4 451.3 358.4 450.4 356.3C449.5 354.2 447.9 351.5 446.7 350.2C445.4 348.9 442.8 347 440.7 345.9C438.4 344.8 435 344.1 431.7 344.1ZM282.4 295.4C284.1 294.6 287.1 294.1 289 294.3C290.9 294.5 293.9 295.6 295.7 296.8C298 298.3 299.3 300.2 300 303C300.7 306 300.6 307.8 299.7 310.3C298.9 312 297 314.5 295.4 315.8C293.4 317.4 291.2 318.1 288.2 318C285.9 318 282.7 317.3 281.2 316.5C279.7 315.6 277.7 313.6 276.7 312C275.8 310.3 275 307.8 275 306.3C275 304.7 276 302 277.2 300.2C278.4 298.4 280.7 296.2 282.4 295.4ZM209.2 0C309.9 1.3133e-07 317.1 0.100392 327 1.90039C332.8 2.9004 341.8 5.20001 347 7C352.2 8.7 359.9 12.0002 364 14.2002C368.1 16.4002 373.8 19.7 376.5 21.5C379.3 23.4 384.6 27.5002 388.5 30.7002C392.4 33.9002 398.4 40.2002 402 44.7002C405.6 49.1001 410.6 56.6996 413.2 61.5996C415.8 66.4996 419.2 74.5 420.8 79.5C422.4 84.5 424.5 93.9 425.5 100.5C426.8 109.1 427.1 115.4 426.6 123C426.3 128.8 425.3 137.1 424.5 141.5C423.6 145.9 421.8 152.8 420.5 156.8C419.1 160.7 416.6 166.8 414.9 170.3C413.2 173.7 409.7 179.7 407.2 183.5C404.7 187.3 398.6 194.7 393.6 199.9C388.6 205 380.9 211.6 376.5 214.5C372.1 217.4 365.4 221.3 361.5 223.3C357.6 225.2 351.1 227.9 347 229.3C342.9 230.7 337.8 232.1 332 233V243.3C332.1 250.4 331.7 253.9 330.8 254.8C330 255.5 327.4 255.9 318.5 255.5L318 235H288V244.3C288 249.299 287.6 254.099 287.2 254.8C286.7 255.6 284.5 256 273.5 255.5L273 235H161L160.5 255.5L155 255.8C151.6 255.9 149 255.5 148.2 254.8C147.2 253.8 146.9 242.4 147 199.5C147 159.6 147.4 144.5 148.3 141.6C148.9 139.5 150.8 136.2 152.5 134.2C154.2 132.3 157.2 129.9 159.3 128.9C162.6 127.2 165.6 127 186.5 127C203.899 127 210.8 127.3 213.3 128.3C215 129.1 218.2 131.6 220.3 133.8C222.3 136.1 224.4 139.7 225 141.7C225.5 143.8 226 151.501 226 172L230.3 172.5C232.6 172.7 248 173.8 264.5 175C281 176.1 298.3 177.3 303 177.6C307.7 177.9 313.1 178.6 315 179.1C316.9 179.5 320.5 181.4 322.9 183.2C325.7 185.4 328 188.3 332 197L337.2 195.1C340.1 194.1 344.9 192.1 353 188V144H344.7C338.5 144.1 336.2 143.7 335.2 142.5C334.5 141.6 334.3 139.9 334.6 138.2C335 136.7 336.8 130.1 338.7 123.5C340.6 116.9 342.8 110.4 343.5 109C344.1 107.6 345.5 106.2 346.4 105.7C347.301 105.3 352.1 105 357 105C361.9 105 367.1 105.4 368.5 106C370.2 106.7 371.5 108.4 372.4 111.2C373.2 113.601 375.6 121.5 377.9 128.7C380.2 136 381.8 142.4 381.5 143C381.2 143.6 376.8 144 362 144V182L365.2 179.7C367 178.5 370.8 174.6 373.8 171C376.7 167.4 381.1 160.4 383.5 155.5C385.9 150.6 388.6 143.1 389.6 139C390.9 133.6 391.5 127.7 391.5 118C391.5 108.2 391 102.5 389.6 97C388.6 92.9 385.8 85.4 383.5 80.5C381.1 75.5001 376.7 68.5004 373.8 64.9004C370.9 61.3004 365.8 55.9996 362.5 53.0996C359.2 50.1996 353.8 46.3 350.5 44.5C347.2 42.6 341.6 40.0002 338 38.7002C334.4 37.3002 327.4 35.4004 322.5 34.4004C314.2 32.7004 307.3 32.6004 228.5 32.9004C162.6 33.1004 142.8 33.5 140.5 34.5C138.8 35.2 136.5 36.7996 135.3 38.0996C134.1 39.3996 132.7 41.7002 132.1 43.2002C131.3 45.1039 131 81.9104 131 276L128.3 278C125.9 279.8 124 280.1 114 280.1C103.1 280.1 102.4 279.9 97 275L97.0996 4.90039L101.9 0H209.2ZM171.4 186C165.3 186 159.9 186.3 159.5 186.7C159 187.101 158.7 192.501 158.8 198.7C158.9 206.6 159.3 210.2 160.2 210.7C160.901 211.1 167.8 211.7 175.6 212L189.8 212.5C190.4 195.501 190.9 189.9 191.3 189C191.9 187.9 191 187.4 187.2 186.8C184.6 186.4 177.5 186 171.4 186ZM220 186.5C214.8 186.1 211.4 186.4 209.1 187.4C207.2 188.101 204.6 190.201 203.3 191.9C201.3 194.6 201 196.2 201 203.5V212H273V187C237.7 187 224.1 186.8 220 186.5ZM202.5 153.9C201.4 153.7 195.1 153.6 188.5 153.8C181.9 153.9 175.401 154.3 174.2 154.5C172.8 154.9 171.4 156.4 170.4 158.8C169.5 160.9 169 163.8 169.3 165.5C169.6 167.2 170.8 169.8 171.9 171.3L174 174H214C214.9 169.8 214.9 167 214.6 165C214.2 163.1 212.7 160.3 211.2 158.7C209.7 157.1 207.6 155.5 206.5 155.1C205.4 154.7 203.6 154.1 202.5 153.9ZM283.7 58C313.2 58 321.6 58.3004 323.7 59.4004C325.2 60.1004 326.8 61.5004 327.2 62.4004C327.6 63.3052 328 81.103 328 102C328 125.3 327.6 140.8 327 142C326.4 143.1 324.6 144.7 323 145.5C320.5 146.8 314 147 284 147C254 147 247.5 146.8 245 145.5C243.3 144.7 241.5 143.1 241 142C240.4 140.8 240 125.2 240 101.8C240 72.401 240.2 63.1009 241.2 61.9004C241.9 61.0004 243.4 59.8002 244.5 59.2002C245.8 58.4002 258.7 58.1 283.7 58ZM253 122.5L252.9 135.1L277.4 134.6V110.6L253 110V122.5ZM290 110V135H315V110H290ZM289.9 71.0996V97.0996H314.9V71.0996H289.9ZM253 84V97H278L277.5 71.5L253.1 70.9004L253 84Z" fill="#1A579F"/>
</svg>
